<svg xmlns="http://www.w3.org/2000/svg" viewBox="0 0 800 800" width="800" height="800">
  <rect width="800" height="800" fill="#ffffff" />
  <g stroke="#000000" stroke-width="4" stroke-linecap="round" stroke-linejoin="round" fill="#ffffff">
    <!-- Flores decorativas inferiores -->
    <!-- Flor izquierda -->
    <circle cx="160" cy="680" r="30" />
    <circle cx="160" cy="625" r="25" />
    <circle cx="215" cy="680" r="25" />
    <circle cx="160" cy="735" r="25" />
    <circle cx="105" cy="680" r="25" />
    <!-- Tallo y hojas flor izq -->
    <path d="M 160 760 L 160 800" />
    <path d="M 160 770 Q 120 760 110 780 Q 130 800 160 780" />

    <!-- Flor derecha -->
    <circle cx="640" cy="680" r="30" />
    <circle cx="640" cy="625" r="25" />
    <circle cx="695" cy="680" r="25" />
    <circle cx="640" cy="735" r="25" />
    <circle cx="585" cy="680" r="25" />
    <!-- Tallo y hojas flor der -->
    <path d="M 640 760 L 640 800" />
    <path d="M 640 770 Q 680 760 690 780 Q 670 800 640 780" />

    <!-- MARIPOSA CENTRAL -->
    <!-- Antenas con puntas circulares -->
    <path d="M 390 220 C 370 160 330 140 310 160 C 300 170 310 190 325 180" />
    <circle cx="310" cy="165" r="10" />

    <path d="M 410 220 C 430 160 470 140 490 160 C 500 170 490 190 475 180" />
    <circle cx="490" cy="165" r="10" />

    <!-- Cabeza -->
    <circle cx="400" cy="235" r="25" />
    <circle cx="390" cy="230" r="4" />
    <circle cx="410" cy="230" r="4" />

    <!-- Tórax -->
    <ellipse cx="400" cy="290" rx="20" ry="35" />

    <!-- Abdomen rayado -->
    <path d="M 385 325 C 385 450 395 500 400 520 C 405 500 415 450 415 325 Z" />
    <line x1="387" y1="360" x2="413" y2="360" />
    <line x1="389" y1="395" x2="411" y2="395" />
    <line x1="392" y1="430" x2="408" y2="430" />
    <line x1="395" y1="465" x2="405" y2="465" />

    <!-- ALA SUPERIOR IZQUIERDA -->
    <path d="M 385 270 C 300 180 160 140 100 240 C 60 310 140 420 380 370 Z" />
    <!-- Diseños internos ala sup izq -->
    <path d="M 280 260 C 200 200 140 250 150 310 C 180 340 260 320 280 260 Z" />
    <circle cx="160" cy="260" r="22" />
    <circle cx="210" cy="300" r="15" />
    <circle cx="260" cy="320" r="12" />
    <path d="M 120 230 Q 150 200 180 220" />

    <!-- ALA SUPERIOR DERECHA -->
    <path d="M 415 270 C 500 180 640 140 700 240 C 740 310 660 420 420 370 Z" />
    <!-- Diseños internos ala sup der -->
    <path d="M 520 260 C 600 200 660 250 650 310 C 620 340 540 320 520 260 Z" />
    <circle cx="640" cy="260" r="22" />
    <circle cx="590" cy="300" r="15" />
    <circle cx="540" cy="320" r="12" />
    <path d="M 680 230 Q 650 200 620 220" />

    <!-- ALA INFERIOR IZQUIERDA -->
    <path d="M 385 375 C 240 390 150 480 200 580 C 240 650 350 560 390 440 Z" />
    <!-- Diseños internos ala inf izq -->
    <circle cx="270" cy="520" r="35" />
    <circle cx="270" cy="520" r="18" />
    <path d="M 220 500 C 230 450 300 440 340 450" />

    <!-- ALA INFERIOR DERECHA -->
    <path d="M 415 375 C 560 390 650 480 600 580 C 560 650 450 560 410 440 Z" />
    <!-- Diseños internos ala inf der -->
    <circle cx="530" cy="520" r="35" />
    <circle cx="530" cy="520" r="18" />
    <path d="M 580 500 C 570 450 500 440 460 450" />
  </g>
</svg>
